<svg xmlns="http://www.w3.org/2000/svg" xmlns:xlink="http://www.w3.org/1999/xlink" width="500" zoomAndPan="magnify" viewBox="0 0 375 374.999991" height="500" preserveAspectRatio="xMidYMid meet" version="1.0"><path fill="#000000" d="M 89.492188 32.308594 L 287.28125 32.308594 C 294.597656 32.308594 300.585938 38.292969 300.585938 45.613281 L 300.585938 246.382812 C 300.585938 253.703125 294.597656 259.691406 287.28125 259.691406 L 89.492188 259.691406 C 82.175781 259.691406 76.191406 253.703125 76.191406 246.382812 L 76.191406 45.613281 C 76.191406 38.292969 82.175781 32.308594 89.492188 32.308594 " fill-opacity="1" fill-rule="evenodd"/><path fill="#fefefe" d="M 85.453125 25.5 L 286.589844 25.5 C 313.082031 25.5 334.761719 52.511719 334.761719 85.527344 L 334.761719 205.582031 C 334.761719 238.601562 313.082031 265.613281 286.589844 265.613281 L 85.453125 265.613281 C 58.957031 265.613281 37.28125 238.597656 37.28125 205.582031 L 37.28125 85.527344 C 37.28125 52.511719 58.957031 25.5 85.453125 25.5 Z M 137.925781 72.097656 C 160.6875 123.269531 156.121094 188.65625 136.296875 240 C 118.277344 230.5625 102.425781 217.332031 92.988281 201.410156 C 86.824219 191.070312 82.574219 179.890625 80.066406 166.867188 C 89.585938 165.878906 95.089844 165.167969 104.636719 164.425781 C 107.207031 183.113281 119.496094 200.875 124.25 206.605469 C 139.277344 172.878906 135.398438 111.828125 124.066406 75.785156 C 126.34375 75.199219 132.585938 72.925781 137.105469 72.28125 Z M 193.003906 34.703125 C 201.101562 34.703125 207.703125 41.3125 207.703125 49.414062 C 207.703125 57.515625 201.101562 64.121094 193.003906 64.121094 C 184.902344 64.121094 178.300781 57.515625 178.300781 49.414062 C 178.300781 41.3125 184.902344 34.703125 193.003906 34.703125 Z M 191.914062 73.847656 C 209.714844 127.675781 207.636719 197.109375 192.074219 250.882812 C 172.871094 196.71875 170.5 127.761719 191.914062 73.847656 Z M 283.488281 77.765625 C 268.355469 87.992188 250.894531 97.265625 250.894531 117.496094 C 250.894531 143.832031 279.136719 163.832031 279.136719 191.257812 C 279.136719 216.695312 255.945312 230.515625 233.929688 237.339844 L 231.347656 224.148438 C 246.59375 216.976562 251.914062 207.378906 251.914062 190.183594 C 251.914062 157.75 221.105469 146.128906 221.105469 114.691406 C 221.105469 88.855469 257.324219 74.464844 276.90625 66.960938 Z M 283.488281 77.765625 " fill-opacity="1" fill-rule="evenodd"/><path fill="#fefefe" d="M 4.589844 283.113281 L 370.40625 283.113281 L 370.40625 278.472656 L 4.589844 278.472656 Z M 4.589844 283.113281 " fill-opacity="1" fill-rule="evenodd"/><path fill="#fefefe" d="M 26.230469 296.34375 L 26.230469 325.738281 L 43.5625 325.738281 L 43.5625 296.34375 L 49.625 296.34375 L 49.625 323.996094 C 49.625 327.304688 49.175781 329.558594 48.292969 330.753906 C 47.394531 331.957031 45.683594 332.554688 43.140625 332.554688 L 26.628906 332.554688 C 24.101562 332.554688 22.390625 331.957031 21.496094 330.753906 C 20.589844 329.558594 20.144531 327.304688 20.144531 323.996094 L 20.144531 296.34375 Z M 26.230469 296.34375 " fill-opacity="1" fill-rule="evenodd"/><path fill="#fefefe" d="M 119.695312 296.257812 L 127.871094 325.558594 L 137.117188 296.257812 L 143.179688 296.257812 L 131.492188 332.46875 L 123.960938 332.554688 L 113.609375 296.257812 Z M 119.695312 296.257812 " fill-opacity="1" fill-rule="evenodd"/><path fill="#fefefe" d="M 98.09375 332.445312 L 104.183594 332.445312 L 104.183594 296.242188 L 98.09375 296.242188 Z M 98.09375 332.445312 " fill-opacity="1" fill-rule="evenodd"/><path fill="#fefefe" d="M 65.125 332.578125 L 65.125 307.152344 L 82.460938 332.578125 L 88.519531 332.578125 L 88.519531 304.929688 L 88.640625 296.371094 L 82.070312 296.402344 L 81.90625 320.539062 L 65.5625 296.464844 L 59.066406 296.492188 L 59.039062 332.582031 L 65.125 332.582031 Z M 65.125 332.578125 " fill-opacity="1" fill-rule="evenodd"/><path fill="#fefefe" d="M 253.148438 302.625 L 236.035156 302.625 L 236.035156 310.402344 L 252.332031 310.402344 C 254.890625 310.402344 256.621094 311.007812 257.515625 312.214844 C 258.417969 313.429688 258.867188 315.671875 258.867188 318.972656 L 258.867188 323.9375 C 258.867188 327.226562 258.417969 329.46875 257.515625 330.683594 C 256.621094 331.886719 254.890625 332.496094 252.332031 332.496094 L 236.1875 332.496094 C 233.628906 332.496094 231.898438 331.890625 231.003906 330.683594 C 230.101562 329.46875 229.652344 327.226562 229.652344 323.9375 L 229.652344 322.945312 L 235.023438 321.402344 L 235.023438 325.679688 L 253.496094 325.679688 L 253.496094 317.425781 L 237.203125 317.425781 C 234.660156 317.425781 232.945312 316.820312 232.050781 315.617188 C 231.164062 314.398438 230.71875 312.15625 230.71875 308.855469 L 230.71875 304.859375 C 230.71875 301.5625 231.164062 299.316406 232.050781 298.101562 C 232.945312 296.898438 234.660156 296.289062 237.203125 296.289062 L 252.035156 296.289062 C 254.492188 296.289062 256.191406 296.875 257.117188 298.03125 C 258.054688 299.199219 258.519531 301.269531 258.519531 304.238281 L 258.519531 304.988281 L 253.148438 306.742188 Z M 253.148438 302.625 " fill-opacity="1" fill-rule="evenodd"/><path fill="#fefefe" d="M 152.617188 332.445312 L 152.617188 296.242188 L 179.75 296.242188 L 179.75 302.328125 L 158.707031 302.328125 L 158.707031 311.296875 L 178.824219 311.296875 L 178.824219 317.386719 L 158.707031 317.386719 L 158.707031 326.355469 L 179.75 326.355469 L 179.75 332.445312 Z M 152.617188 332.445312 " fill-opacity="1" fill-rule="evenodd"/><path fill="#fefefe" d="M 189.1875 332.535156 L 189.1875 296.328125 L 211.550781 296.328125 C 213.628906 296.328125 215.128906 296.878906 216.066406 297.988281 C 216.996094 299.097656 217.460938 300.886719 217.460938 303.34375 L 217.460938 311.851562 C 217.460938 314.296875 216.996094 316.074219 216.066406 317.183594 C 215.128906 318.304688 213.628906 318.867188 211.550781 318.867188 L 208.140625 318.867188 L 220.207031 332.535156 L 211.476562 332.535156 L 200.941406 318.867188 L 195.171875 318.867188 L 195.171875 332.535156 Z M 208.859375 302.59375 L 195.171875 302.59375 L 195.171875 312.671875 L 208.859375 312.671875 C 209.914062 312.671875 210.632812 312.460938 211.019531 312.039062 C 211.40625 311.617188 211.601562 310.871094 211.601562 309.792969 L 211.601562 305.433594 C 211.601562 304.382812 211.40625 303.644531 211.019531 303.226562 C 210.632812 302.804688 209.914062 302.59375 208.859375 302.59375 " fill-opacity="1" fill-rule="evenodd"/><path fill="#fefefe" d="M 268.296875 332.535156 L 274.382812 332.535156 L 274.382812 296.328125 L 268.296875 296.328125 Z M 268.296875 332.535156 " fill-opacity="1" fill-rule="evenodd"/><path fill="#fefefe" d="M 283.792969 296.34375 L 317.042969 296.34375 L 317.042969 302.4375 L 303.460938 302.4375 L 303.460938 332.789062 L 297.375 332.789062 L 297.375 302.4375 L 283.792969 302.4375 Z M 283.792969 296.34375 " fill-opacity="1" fill-rule="evenodd"/><path fill="#fefefe" d="M 330.898438 296.214844 L 339.414062 312.5625 L 339.582031 312.5625 L 348.097656 296.214844 L 354.886719 296.308594 L 342.875 319.199219 L 342.828125 319.199219 L 342.828125 332.757812 L 336.167969 332.757812 L 336.167969 319.257812 L 324.109375 296.308594 Z M 330.898438 296.214844 " fill-opacity="1" fill-rule="evenodd"/><path fill="#fefefe" d="M 4.015625 345.007812 L 371.054688 345.007812 L 371.054688 349.648438 L 4.015625 349.648438 Z M 4.015625 345.007812 " fill-opacity="1" fill-rule="evenodd"/></svg>